# Vectary OBJ Export units=mm
mtllib Project Name.mtl
o 000_Cylinder
g Cylinder
usemtl Cylinder material_e895059e-753b-4b17-9b43-315b35cd1f12
v 250.065 -228.527 -0.000
v 202.307 -228.527 -145.178
v 202.307 345.943 -145.178
v 250.065 345.943 0.000
v 77.274 -228.527 -234.903
v 77.274 345.943 -234.903
v -77.274 -228.527 -234.903
v -77.274 345.943 -234.903
v -202.307 -228.527 -145.178
v -202.307 345.943 -145.178
v -250.065 -228.527 -0.000
v -250.065 345.943 0.000
v -202.307 -228.527 145.178
v -202.307 345.943 145.178
v -77.274 -228.527 234.903
v -77.274 345.943 234.903
v 77.274 -228.527 234.903
v 77.274 345.943 234.903
v 202.307 -228.527 145.178
v 202.307 345.943 145.178
vn 1.00000 0.00000 0.00000
vn 0.80554 0.00000 -0.59254
vn 0.80554 0.00000 -0.59254
vn 1.00000 0.00000 0.00000
vn 0.80554 0.00000 -0.59254
vn 0.30557 0.00000 -0.95217
vn 0.30557 0.00000 -0.95217
vn 0.80554 0.00000 -0.59254
vn 0.30557 0.00000 -0.95217
vn -0.30557 0.00000 -0.95217
vn -0.30557 0.00000 -0.95217
vn 0.30557 0.00000 -0.95217
vn -0.30557 0.00000 -0.95217
vn -0.80554 0.00000 -0.59254
vn -0.80554 0.00000 -0.59254
vn -0.30557 0.00000 -0.95217
vn -0.80554 0.00000 -0.59254
vn -1.00000 0.00000 -0.00000
vn -1.00000 0.00000 -0.00000
vn -0.80554 0.00000 -0.59254
vn -1.00000 0.00000 -0.00000
vn -0.80554 -0.00000 0.59254
vn -0.80554 -0.00000 0.59254
vn -1.00000 0.00000 -0.00000
vn -0.80554 -0.00000 0.59254
vn -0.30557 -0.00000 0.95217
vn -0.30557 -0.00000 0.95217
vn -0.80554 -0.00000 0.59254
vn -0.30557 -0.00000 0.95217
vn 0.30557 -0.00000 0.95217
vn 0.30557 -0.00000 0.95217
vn -0.30557 -0.00000 0.95217
vn 0.30557 -0.00000 0.95217
vn 0.80554 -0.00000 0.59254
vn 0.80554 -0.00000 0.59254
vn 0.30557 -0.00000 0.95217
vn 0.80554 -0.00000 0.59254
vn 1.00000 0.00000 0.00000
vn 1.00000 0.00000 0.00000
vn 0.80554 -0.00000 0.59254
f 2//2 3//3 4//4 1//1 
f 5//6 6//7 3//8 2//5 
f 7//10 8//11 6//12 5//9 
f 9//14 10//15 8//16 7//13 
f 11//18 12//19 10//20 9//17 
f 13//22 14//23 12//24 11//21 
f 15//26 16//27 14//28 13//25 
f 17//30 18//31 16//32 15//29 
f 19//34 20//35 18//36 17//33 
f 1//38 4//39 20//40 19//37 
